# xmcd
#
# Track frame offsets: 
#        150
#        11352
#        26765
#        39697
#        53100
#        68192
#        82772
#        96525
#        107315
#        121532
#
# Disc length: 1760 seconds
#
# Revision: 3
# Processed by: cddbd v1.5.2PL0 Copyright (c) Steve Scherf et al.
# Submitted via: ExactAudioCopy v0.95b4
#
DISCID=7006de0a
DTITLE=Chris LeDoux - Rodeo And Living Free
DYEAR=1974
DGENRE=Country
TTITLE0=Fourth Of July Rodeos
TTITLE1=Horses And Cattle
TTITLE2=Fine As Wine
TTITLE3=Tie A Knot In The Devil's Tail
TTITLE4=The Bucking Machine
TTITLE5=The Winner
TTITLE6=Painted Ladies
TTITLE7=Willie The Wandering Gypsy
TTITLE8=Cowboy In The Continental Suit
TTITLE9=Tight Levis And Yellow Ribbons
EXTD=
EXTT0=
EXTT1=
EXTT2=
EXTT3=
EXTT4=
EXTT5=
EXTT6=
EXTT7=
EXTT8=
EXTT9=
PLAYORDER=
